<svg xmlns="http://www.w3.org/2000/svg" viewBox="0 0 480 310" width="480" height="310">
  <defs>
    <linearGradient id="bg" x1="0%" y1="0%" x2="100%" y2="100%">
      <stop offset="0%" style="stop-color:#1e3a5f"/>
      <stop offset="100%" style="stop-color:#2d6a9f"/>
    </linearGradient>
    <linearGradient id="chip" x1="0%" y1="0%" x2="100%" y2="100%">
      <stop offset="0%" style="stop-color:#d4a843"/>
      <stop offset="100%" style="stop-color:#f0c96a"/>
    </linearGradient>
  </defs>
  <rect width="480" height="310" rx="20" fill="url(#bg)"/>
  <circle cx="420" cy="-30" r="150" fill="none" stroke="rgba(255,255,255,0.06)" stroke-width="40"/>
  <circle cx="420" cy="-30" r="100" fill="none" stroke="rgba(255,255,255,0.04)" stroke-width="30"/>
  <circle cx="60" cy="340" r="120" fill="none" stroke="rgba(255,255,255,0.05)" stroke-width="30"/>
  <text x="36" y="52" font-family="'Helvetica Neue',Arial,sans-serif" font-size="22" font-weight="700" fill="white" letter-spacing="2">MEMBER</text>
  <text x="36" y="72" font-family="'Helvetica Neue',Arial,sans-serif" font-size="11" fill="rgba(255,255,255,0.55)" letter-spacing="3">CARD</text>
  <rect x="36" y="110" width="54" height="42" rx="6" fill="url(#chip)"/>
  <line x1="36" y1="124" x2="90" y2="124" stroke="rgba(0,0,0,0.15)" stroke-width="1"/>
  <line x1="36" y1="138" x2="90" y2="138" stroke="rgba(0,0,0,0.15)" stroke-width="1"/>
  <line x1="63" y1="110" x2="63" y2="152" stroke="rgba(0,0,0,0.12)" stroke-width="1"/>
  <text x="36" y="196" font-family="'Courier New',monospace" font-size="20" font-weight="500" fill="white" letter-spacing="3">1234  5678  9012  3456</text>
  <text x="36" y="240" font-family="'Helvetica Neue',Arial,sans-serif" font-size="11" fill="rgba(255,255,255,0.5)" letter-spacing="2">CARDHOLDER NAME</text>
  <text x="360" y="240" font-family="'Helvetica Neue',Arial,sans-serif" font-size="11" fill="rgba(255,255,255,0.5)" letter-spacing="2">VALID THRU</text>
  <text x="36" y="264" font-family="'Helvetica Neue',Arial,sans-serif" font-size="16" font-weight="500" fill="white">Jane Doe</text>
  <text x="360" y="264" font-family="'Helvetica Neue',Arial,sans-serif" font-size="16" font-weight="500" fill="white">12/28</text>
  <g transform="translate(430,118)" fill="none" stroke="rgba(255,255,255,0.6)" stroke-width="2.5" stroke-linecap="round">
    <path d="M0,16 Q8,8 0,0"/>
    <path d="M6,19 Q18,9.5 6,-3"/>
    <path d="M12,22 Q28,11 12,-6"/>
  </g>
</svg>
